# Blender v2.76 (sub 0) OBJ File: 'untitled.blend'
# www.blender.org
mtllib cilinder.mtl
o Cylinder
v 0.000000 -2.598184 -3.782870
v 0.000000 2.598184 -5.605356
v 3.276062 -2.598184 -1.891435
v 4.854381 2.598184 -2.802678
v 3.276062 -2.598184 1.891435
v 4.854381 2.598184 2.802678
v -0.000000 -2.598184 3.782870
v -0.000000 2.598184 5.605356
v -3.276062 -2.598184 1.891435
v -4.854381 2.598184 2.802678
v -3.276062 -2.598184 -1.891435
v -4.854381 2.598184 -2.802678
vt 1.000000 0.000000
vt 1.000000 1.000000
vt 0.000000 1.000000
vt 0.933013 0.750000
vt 0.066987 0.250000
vt 0.066987 0.750000
vt 0.500000 0.000000
vt 0.000000 0.000000
vt 0.500000 1.000000
vt 0.933013 0.250000
vn 0.478400 -0.290600 -0.828600
vn 0.956800 -0.290600 0.000000
vn 0.478400 -0.290600 0.828600
vn -0.478400 -0.290600 0.828600
vn 0.000000 1.000000 0.000000
vn -0.478400 -0.290600 -0.828600
vn -0.956800 -0.290600 0.000000
vn 0.000000 -1.000000 -0.000000
usemtl Material.001
s off
f 2/1/1 4/2/1 3/3/1
f 4/1/2 6/2/2 5/3/2
f 6/1/3 8/2/3 7/3/3
f 8/1/4 10/2/4 9/3/4
f 2/4/5 8/5/5 6/6/5
f 12/1/6 2/2/6 1/3/6
f 10/1/7 12/2/7 11/3/7
f 3/4/8 7/7/8 11/6/8
f 1/8/1 2/1/1 3/3/1
f 3/8/2 4/1/2 5/3/2
f 5/8/3 6/1/3 7/3/3
f 7/8/4 8/1/4 9/3/4
f 6/6/5 4/9/5 2/4/5
f 2/4/5 12/10/5 8/5/5
f 10/7/5 8/5/5 12/10/5
f 11/8/6 12/1/6 1/3/6
f 9/8/7 10/1/7 11/3/7
f 11/6/8 1/9/8 3/4/8
f 3/4/8 5/10/8 7/7/8
f 7/7/8 9/5/8 11/6/8
o Cylinder.001_Cylinder.002
v 0.000000 5.520630 -3.782870
v 0.000000 10.716999 -5.605356
v 3.276062 5.520630 -1.891435
v 4.854381 10.716999 -2.802678
v 3.276062 5.520630 1.891435
v 4.854381 10.716999 2.802678
v -0.000000 5.520630 3.782870
v -0.000000 10.716999 5.605356
v -3.276062 5.520630 1.891435
v -4.854381 10.716999 2.802678
v -3.276062 5.520630 -1.891435
v -4.854381 10.716999 -2.802678
vt 1.000000 0.000000
vt 1.000000 1.000000
vt 0.000000 1.000000
vt 0.000000 0.000000
vt 0.933013 0.750000
vt 0.066987 0.250000
vt 0.066987 0.750000
vt 0.500000 0.000000
vt 0.500000 1.000000
vt 0.933013 0.250000
vn 0.478400 -0.290600 -0.828600
vn 0.956800 -0.290600 0.000000
vn 0.478400 -0.290600 0.828600
vn -0.478400 -0.290600 0.828600
vn 0.000000 1.000000 -0.000000
vn -0.478400 -0.290600 -0.828600
vn -0.956800 -0.290600 0.000000
vn 0.000000 -1.000000 0.000000
usemtl Material.003
s off
f 14/11/9 16/12/9 15/13/9
f 16/11/10 18/12/10 17/13/10
f 17/14/11 18/11/11 20/12/11
f 20/11/12 22/12/12 21/13/12
f 14/15/13 20/16/13 18/17/13
f 24/11/14 14/12/14 13/13/14
f 22/11/15 24/12/15 23/13/15
f 15/15/16 19/18/16 23/17/16
f 13/14/9 14/11/9 15/13/9
f 15/14/10 16/11/10 17/13/10
f 19/13/11 17/14/11 20/12/11
f 19/14/12 20/11/12 21/13/12
f 18/17/13 16/19/13 14/15/13
f 14/15/13 24/20/13 20/16/13
f 22/18/13 20/16/13 24/20/13
f 23/14/14 24/11/14 13/13/14
f 21/14/15 22/11/15 23/13/15
f 23/17/16 13/19/16 15/15/16
f 15/15/16 17/20/16 19/18/16
f 19/18/16 21/16/16 23/17/16
